<svg width="128" height="114" viewBox="0 0 128 114" fill="none" xmlns="http://www.w3.org/2000/svg">
<path d="M21.5742 99.818V106.914C21.5742 108.924 20.8942 110.609 19.5341 111.969C18.1741 113.329 16.4889 114.009 14.4785 114.009H7.38279C5.37235 114.009 3.68712 113.329 2.32712 111.969C0.967112 110.609 0.287109 108.924 0.287109 106.914V50.1482L15.188 7.57409C15.8976 5.44539 17.1689 3.7306 19.002 2.42972C20.835 1.12885 22.875 0.478409 25.122 0.478409H103.175C105.421 0.478409 107.461 1.12885 109.295 2.42972C111.128 3.7306 112.399 5.44539 113.108 7.57409L128.009 50.1482V106.914C128.009 108.924 127.329 110.609 125.969 111.969C124.609 113.329 122.924 114.009 120.914 114.009H113.818C111.808 114.009 110.122 113.329 108.762 111.969C107.402 110.609 106.722 108.924 106.722 106.914V99.818H21.5742ZM20.155 35.9568H108.141L100.691 14.6698H27.6055L20.155 35.9568ZM32.2177 78.5309C35.1742 78.5309 37.6873 77.4961 39.7568 75.4266C41.8264 73.357 42.8612 70.8439 42.8612 67.8874C42.8612 64.9309 41.8264 62.4178 39.7568 60.3482C37.6873 58.2787 35.1742 57.2439 32.2177 57.2439C29.2611 57.2439 26.7481 58.2787 24.6785 60.3482C22.6089 62.4178 21.5742 64.9309 21.5742 67.8874C21.5742 70.8439 22.6089 73.357 24.6785 75.4266C26.7481 77.4961 29.2611 78.5309 32.2177 78.5309ZM96.0788 78.5309C99.0354 78.5309 101.548 77.4961 103.618 75.4266C105.688 73.357 106.722 70.8439 106.722 67.8874C106.722 64.9309 105.688 62.4178 103.618 60.3482C101.548 58.2787 99.0354 57.2439 96.0788 57.2439C93.1223 57.2439 90.6092 58.2787 88.5397 60.3482C86.4701 62.4178 85.4353 64.9309 85.4353 67.8874C85.4353 70.8439 86.4701 73.357 88.5397 75.4266C90.6092 77.4961 93.1223 78.5309 96.0788 78.5309ZM14.4785 85.6266H113.818V50.1482H14.4785V85.6266Z" fill="#1C1B1F"/>
</svg>
