<svg width="176" height="48" viewBox="0 0 176 48" fill="none" xmlns="http://www.w3.org/2000/svg">
<rect y="10" width="89" height="29" fill="#D84141"/>
<path d="M9.0767 39L0.752841 9.90909H7.47159L12.2869 30.1222H12.5284L17.8409 9.90909H23.5938L28.892 30.1648H29.1477L33.9631 9.90909H40.6818L32.358 39H26.3636L20.8239 19.9801H20.5966L15.071 39H9.0767ZM51.4595 39.4261C49.2152 39.4261 47.2834 38.9716 45.6641 38.0625C44.0542 37.1439 42.8137 35.8466 41.9425 34.1705C41.0713 32.4848 40.6357 30.4915 40.6357 28.1903C40.6357 25.946 41.0713 23.9763 41.9425 22.2812C42.8137 20.5862 44.04 19.2652 45.6214 18.3182C47.2124 17.3712 49.0779 16.8977 51.218 16.8977C52.6574 16.8977 53.9974 17.1297 55.2379 17.5938C56.4879 18.0483 57.5769 18.7348 58.505 19.6534C59.4425 20.572 60.1716 21.7273 60.6925 23.1193C61.2133 24.5019 61.4737 26.1212 61.4737 27.9773V29.6392H43.0504V25.8892H55.7777C55.7777 25.018 55.5883 24.2462 55.2095 23.5739C54.8307 22.9015 54.3052 22.3759 53.6328 21.9972C52.9699 21.6089 52.1982 21.4148 51.3175 21.4148C50.3989 21.4148 49.5845 21.6278 48.8743 22.054C48.1735 22.4706 47.6243 23.0341 47.2266 23.7443C46.8288 24.4451 46.6252 25.2263 46.6158 26.0881V29.6534C46.6158 30.733 46.8146 31.6657 47.2124 32.4517C47.6196 33.2377 48.1925 33.8438 48.9311 34.2699C49.6697 34.696 50.5457 34.9091 51.5589 34.9091C52.2313 34.9091 52.8468 34.8144 53.4055 34.625C53.9643 34.4356 54.4425 34.1515 54.8402 33.7727C55.2379 33.3939 55.541 32.9299 55.7493 32.3807L61.3459 32.75C61.0618 34.0947 60.4794 35.2689 59.5987 36.2727C58.7275 37.267 57.6006 38.0436 56.218 38.6023C54.8449 39.1515 53.2588 39.4261 51.4595 39.4261ZM65.5362 39V9.90909H71.5874V20.8466H71.772C72.0372 20.2595 72.4207 19.6629 72.9226 19.0568C73.4339 18.4413 74.0968 17.9299 74.9112 17.5227C75.7351 17.1061 76.7578 16.8977 77.9794 16.8977C79.5703 16.8977 81.0381 17.3144 82.3828 18.1477C83.7275 18.9716 84.8023 20.2169 85.6072 21.8835C86.4122 23.5407 86.8146 25.6193 86.8146 28.1193C86.8146 30.553 86.4216 32.608 85.6357 34.2841C84.8591 35.9508 83.7985 37.215 82.4538 38.0767C81.1186 38.929 79.6224 39.3551 77.9652 39.3551C76.791 39.3551 75.7919 39.161 74.968 38.7727C74.1536 38.3845 73.486 37.8968 72.9652 37.3097C72.4444 36.7131 72.0466 36.1117 71.772 35.5057H71.5021V39H65.5362ZM71.4595 28.0909C71.4595 29.3883 71.6394 30.5199 71.9993 31.4858C72.3591 32.4517 72.88 33.2045 73.5618 33.7443C74.2436 34.2746 75.0722 34.5398 76.0476 34.5398C77.0324 34.5398 77.8658 34.2699 78.5476 33.7301C79.2294 33.1809 79.7455 32.4233 80.0959 31.4574C80.4557 30.482 80.6357 29.3598 80.6357 28.0909C80.6357 26.8314 80.4605 25.7235 80.1101 24.767C79.7597 23.8106 79.2436 23.0625 78.5618 22.5227C77.88 21.983 77.0419 21.7131 76.0476 21.7131C75.0627 21.7131 74.2294 21.9735 73.5476 22.4943C72.8752 23.0152 72.3591 23.7538 71.9993 24.7102C71.6394 25.6667 71.4595 26.7936 71.4595 28.0909ZM115.369 19H111.847C111.638 17.9867 111.274 17.0966 110.753 16.3295C110.241 15.5625 109.616 14.9186 108.878 14.3977C108.149 13.8674 107.339 13.4697 106.449 13.2045C105.559 12.9394 104.631 12.8068 103.665 12.8068C101.903 12.8068 100.308 13.2519 98.8778 14.142C97.4574 15.0322 96.3258 16.3438 95.483 18.0767C94.6496 19.8097 94.233 21.9356 94.233 24.4545C94.233 26.9735 94.6496 29.0994 95.483 30.8324C96.3258 32.5653 97.4574 33.8769 98.8778 34.767C100.308 35.6572 101.903 36.1023 103.665 36.1023C104.631 36.1023 105.559 35.9697 106.449 35.7045C107.339 35.4394 108.149 35.0464 108.878 34.5256C109.616 33.9953 110.241 33.3466 110.753 32.5795C111.274 31.803 111.638 30.9129 111.847 29.9091H115.369C115.104 31.3958 114.621 32.7263 113.92 33.9006C113.22 35.0748 112.348 36.0739 111.307 36.8977C110.265 37.7121 109.096 38.3324 107.798 38.7585C106.51 39.1847 105.133 39.3977 103.665 39.3977C101.184 39.3977 98.9773 38.7917 97.0455 37.5795C95.1136 36.3674 93.5938 34.6439 92.4858 32.4091C91.3778 30.1742 90.8239 27.5227 90.8239 24.4545C90.8239 21.3864 91.3778 18.7348 92.4858 16.5C93.5938 14.2652 95.1136 12.5417 97.0455 11.3295C98.9773 10.1174 101.184 9.51136 103.665 9.51136C105.133 9.51136 106.51 9.72443 107.798 10.1506C109.096 10.5767 110.265 11.2017 111.307 12.0256C112.348 12.84 113.22 13.8343 113.92 15.0085C114.621 16.1733 115.104 17.5038 115.369 19ZM127.028 39.5114C125.645 39.5114 124.39 39.2509 123.263 38.7301C122.137 38.1998 121.242 37.4375 120.579 36.4432C119.916 35.4394 119.585 34.2273 119.585 32.8068C119.585 31.5568 119.831 30.5436 120.323 29.767C120.816 28.9811 121.474 28.3655 122.298 27.9205C123.121 27.4754 124.031 27.1439 125.025 26.9261C126.029 26.6989 127.037 26.5189 128.05 26.3864C129.376 26.2159 130.451 26.0881 131.275 26.0028C132.108 25.9081 132.714 25.7519 133.093 25.5341C133.481 25.3163 133.675 24.9375 133.675 24.3977V24.2841C133.675 22.8826 133.292 21.7936 132.525 21.017C131.767 20.2405 130.617 19.8523 129.073 19.8523C127.473 19.8523 126.218 20.2027 125.309 20.9034C124.4 21.6042 123.761 22.3523 123.391 23.1477L120.21 22.0114C120.778 20.6856 121.535 19.6534 122.482 18.9148C123.439 18.1667 124.48 17.6458 125.607 17.3523C126.744 17.0492 127.861 16.8977 128.96 16.8977C129.66 16.8977 130.465 16.983 131.374 17.1534C132.293 17.3144 133.178 17.6506 134.031 18.1619C134.892 18.6733 135.607 19.4451 136.175 20.4773C136.744 21.5095 137.028 22.892 137.028 24.625V39H133.675V36.0455H133.505C133.278 36.5189 132.899 37.0256 132.369 37.5653C131.838 38.1051 131.133 38.5644 130.252 38.9432C129.371 39.322 128.297 39.5114 127.028 39.5114ZM127.539 36.5C128.865 36.5 129.982 36.2396 130.891 35.7188C131.81 35.1979 132.501 34.5256 132.965 33.7017C133.439 32.8778 133.675 32.0114 133.675 31.1023V28.0341C133.533 28.2045 133.221 28.3608 132.738 28.5028C132.264 28.6354 131.715 28.7538 131.09 28.858C130.475 28.9527 129.873 29.0379 129.286 29.1136C128.709 29.1799 128.24 29.2367 127.88 29.2841C127.009 29.3977 126.194 29.5824 125.437 29.8381C124.689 30.0843 124.083 30.4583 123.619 30.9602C123.164 31.4527 122.937 32.125 122.937 32.9773C122.937 34.142 123.368 35.0227 124.229 35.6193C125.101 36.2064 126.204 36.5 127.539 36.5ZM143.146 39V17.1818H146.385V20.4773H146.612C147.01 19.3977 147.73 18.5218 148.771 17.8494C149.813 17.1771 150.987 16.8409 152.294 16.8409C152.54 16.8409 152.848 16.8456 153.217 16.8551C153.587 16.8646 153.866 16.8788 154.055 16.8977V20.3068C153.942 20.2784 153.681 20.2358 153.274 20.179C152.876 20.1127 152.455 20.0795 152.01 20.0795C150.949 20.0795 150.002 20.3021 149.169 20.7472C148.345 21.1828 147.692 21.7888 147.209 22.5653C146.735 23.3324 146.499 24.2083 146.499 25.1932V39H143.146ZM173.484 22.0682L170.472 22.9205C170.283 22.4186 170.004 21.9309 169.634 21.4574C169.274 20.9744 168.782 20.5767 168.157 20.2642C167.532 19.9517 166.732 19.7955 165.756 19.7955C164.421 19.7955 163.308 20.1032 162.418 20.7188C161.538 21.3248 161.097 22.0966 161.097 23.0341C161.097 23.8674 161.4 24.5256 162.006 25.0085C162.612 25.4915 163.559 25.8939 164.847 26.2159L168.086 27.0114C170.037 27.4848 171.49 28.2093 172.447 29.1847C173.403 30.1506 173.881 31.3958 173.881 32.9205C173.881 34.1705 173.522 35.2879 172.802 36.2727C172.092 37.2576 171.097 38.0341 169.819 38.6023C168.54 39.1705 167.054 39.4545 165.359 39.4545C163.133 39.4545 161.291 38.9716 159.833 38.0057C158.375 37.0398 157.451 35.6288 157.063 33.7727L160.245 32.9773C160.548 34.1515 161.121 35.0322 161.964 35.6193C162.816 36.2064 163.929 36.5 165.302 36.5C166.864 36.5 168.105 36.1686 169.023 35.5057C169.951 34.8333 170.415 34.0284 170.415 33.0909C170.415 32.3333 170.15 31.6989 169.62 31.1875C169.09 30.6667 168.275 30.2784 167.177 30.0227L163.54 29.1705C161.542 28.697 160.075 27.9631 159.137 26.9688C158.209 25.965 157.745 24.7102 157.745 23.2045C157.745 21.9735 158.091 20.8845 158.782 19.9375C159.483 18.9905 160.434 18.2472 161.637 17.7074C162.849 17.1676 164.222 16.8977 165.756 16.8977C167.915 16.8977 169.611 17.3712 170.842 18.3182C172.082 19.2652 172.963 20.5152 173.484 22.0682Z" fill="white"/>
</svg>
