<svg width="88" height="24" viewBox="0 0 88 24" fill="none" xmlns="http://www.w3.org/2000/svg">
<rect y="5" width="44" height="14" fill="white"/>
<path d="M4.53835 19L0.37642 4.45455H3.7358L6.14347 14.5611H6.2642L8.92045 4.45455H11.7969L14.446 14.5824H14.5739L16.9815 4.45455H20.3409L16.179 19H13.1818L10.4119 9.49006H10.2983L7.53551 19H4.53835ZM25.7298 19.2131C24.6076 19.2131 23.6417 18.9858 22.832 18.5312C22.0271 18.072 21.4068 17.4233 20.9712 16.5852C20.5356 15.7424 20.3178 14.7457 20.3178 13.5952C20.3178 12.473 20.5356 11.4882 20.9712 10.6406C21.4068 9.79309 22.02 9.13258 22.8107 8.65909C23.6062 8.18561 24.5389 7.94886 25.609 7.94886C26.3287 7.94886 26.9987 8.06487 27.619 8.29688C28.244 8.52415 28.7885 8.86742 29.2525 9.3267C29.7212 9.78598 30.0858 10.3636 30.3462 11.0597C30.6067 11.7509 30.7369 12.5606 30.7369 13.4886V14.3196H21.5252V12.4446H27.8888C27.8888 12.009 27.7942 11.6231 27.6048 11.2869C27.4154 10.9508 27.1526 10.688 26.8164 10.4986C26.485 10.3045 26.0991 10.2074 25.6587 10.2074C25.1995 10.2074 24.7923 10.3139 24.4371 10.527C24.0868 10.7353 23.8121 11.017 23.6133 11.3722C23.4144 11.7225 23.3126 12.1132 23.3079 12.544V14.3267C23.3079 14.8665 23.4073 15.3329 23.6062 15.7259C23.8098 16.1188 24.0962 16.4219 24.4656 16.6349C24.8349 16.848 25.2728 16.9545 25.7795 16.9545C26.1156 16.9545 26.4234 16.9072 26.7028 16.8125C26.9821 16.7178 27.2212 16.5758 27.4201 16.3864C27.619 16.197 27.7705 15.965 27.8746 15.6903L30.6729 15.875C30.5309 16.5473 30.2397 17.1345 29.7994 17.6364C29.3638 18.1335 28.8003 18.5218 28.109 18.8011C27.4225 19.0758 26.6294 19.2131 25.7298 19.2131ZM32.7681 19V4.45455H35.7937V9.9233H35.886C36.0186 9.62973 36.2103 9.33144 36.4613 9.02841C36.717 8.72064 37.0484 8.46496 37.4556 8.26136C37.8675 8.05303 38.3789 7.94886 38.9897 7.94886C39.7852 7.94886 40.5191 8.1572 41.1914 8.57386C41.8638 8.9858 42.4012 9.60843 42.8036 10.4418C43.2061 11.2704 43.4073 12.3097 43.4073 13.5597C43.4073 14.7765 43.2108 15.804 42.8178 16.642C42.4296 17.4754 41.8993 18.1075 41.2269 18.5384C40.5593 18.9645 39.8112 19.1776 38.9826 19.1776C38.3955 19.1776 37.896 19.0805 37.484 18.8864C37.0768 18.6922 36.743 18.4484 36.4826 18.1548C36.2222 17.8565 36.0233 17.5559 35.886 17.2528H35.7511V19H32.7681ZM35.7298 13.5455C35.7298 14.1941 35.8197 14.7599 35.9996 15.2429C36.1796 15.7259 36.44 16.1023 36.7809 16.3722C37.1218 16.6373 37.5361 16.7699 38.0238 16.7699C38.5162 16.7699 38.9329 16.6349 39.2738 16.3651C39.6147 16.0904 39.8728 15.7116 40.0479 15.2287C40.2279 14.741 40.3178 14.1799 40.3178 13.5455C40.3178 12.9157 40.2302 12.3617 40.055 11.8835C39.8799 11.4053 39.6218 11.0312 39.2809 10.7614C38.94 10.4915 38.521 10.3565 38.0238 10.3565C37.5314 10.3565 37.1147 10.4867 36.7738 10.7472C36.4376 11.0076 36.1796 11.3769 35.9996 11.8551C35.8197 12.3333 35.7298 12.8968 35.7298 13.5455Z" fill="#D84141"/>
<path d="M57.6847 9H55.9233C55.8191 8.49337 55.6368 8.0483 55.3764 7.66477C55.1207 7.28125 54.8082 6.95928 54.4389 6.69886C54.0743 6.43371 53.6695 6.23485 53.2244 6.10227C52.7794 5.9697 52.3153 5.90341 51.8324 5.90341C50.9517 5.90341 50.1539 6.12595 49.4389 6.57102C48.7287 7.0161 48.1629 7.67188 47.7415 8.53835C47.3248 9.40483 47.1165 10.4678 47.1165 11.7273C47.1165 12.9867 47.3248 14.0497 47.7415 14.9162C48.1629 15.7827 48.7287 16.4384 49.4389 16.8835C50.1539 17.3286 50.9517 17.5511 51.8324 17.5511C52.3153 17.5511 52.7794 17.4848 53.2244 17.3523C53.6695 17.2197 54.0743 17.0232 54.4389 16.7628C54.8082 16.4976 55.1207 16.1733 55.3764 15.7898C55.6368 15.4015 55.8191 14.9564 55.9233 14.4545H57.6847C57.5521 15.1979 57.3106 15.8632 56.9602 16.4503C56.6098 17.0374 56.1742 17.5369 55.6534 17.9489C55.1326 18.3561 54.5478 18.6662 53.8991 18.8793C53.2552 19.0923 52.5663 19.1989 51.8324 19.1989C50.5919 19.1989 49.4886 18.8958 48.5227 18.2898C47.5568 17.6837 46.7969 16.822 46.2429 15.7045C45.6889 14.5871 45.4119 13.2614 45.4119 11.7273C45.4119 10.1932 45.6889 8.86742 46.2429 7.75C46.7969 6.63258 47.5568 5.77083 48.5227 5.16477C49.4886 4.55871 50.5919 4.25568 51.8324 4.25568C52.5663 4.25568 53.2552 4.36222 53.8991 4.57528C54.5478 4.78835 55.1326 5.10085 55.6534 5.51278C56.1742 5.91998 56.6098 6.41714 56.9602 7.00426C57.3106 7.58665 57.5521 8.25189 57.6847 9ZM63.5138 19.2557C62.8226 19.2557 62.1952 19.1255 61.6317 18.8651C61.0683 18.5999 60.6209 18.2188 60.2894 17.7216C59.958 17.2197 59.7923 16.6136 59.7923 15.9034C59.7923 15.2784 59.9154 14.7718 60.1616 14.3835C60.4078 13.9905 60.7369 13.6828 61.1488 13.4602C61.5607 13.2377 62.0153 13.072 62.5124 12.9631C63.0143 12.8494 63.5186 12.7595 64.0252 12.6932C64.6881 12.608 65.2255 12.544 65.6374 12.5014C66.0541 12.4541 66.3571 12.3759 66.5465 12.267C66.7406 12.1581 66.8377 11.9687 66.8377 11.6989V11.642C66.8377 10.9413 66.646 10.3968 66.2624 10.0085C65.8836 9.62027 65.3084 9.42614 64.5366 9.42614C63.7364 9.42614 63.109 9.60133 62.6545 9.9517C62.1999 10.3021 61.8803 10.6761 61.6957 11.0739L60.1048 10.5057C60.3888 9.8428 60.7676 9.3267 61.2411 8.95739C61.7193 8.58333 62.2402 8.32292 62.8036 8.17614C63.3718 8.02462 63.9305 7.94886 64.4798 7.94886C64.8301 7.94886 65.2326 7.99148 65.6871 8.0767C66.1464 8.1572 66.5891 8.32528 67.0153 8.58097C67.4461 8.83665 67.8036 9.22254 68.0877 9.73864C68.3718 10.2547 68.5138 10.946 68.5138 11.8125V19H66.8377V17.5227H66.7525C66.6388 17.7595 66.4495 18.0128 66.1843 18.2827C65.9192 18.5526 65.5664 18.7822 65.1261 18.9716C64.6857 19.161 64.1483 19.2557 63.5138 19.2557ZM63.7695 17.75C64.4324 17.75 64.9911 17.6198 65.4457 17.3594C65.9049 17.099 66.2506 16.7628 66.4826 16.3509C66.7193 15.9389 66.8377 15.5057 66.8377 15.0511V13.517C66.7667 13.6023 66.6104 13.6804 66.369 13.7514C66.1322 13.8177 65.8576 13.8769 65.5451 13.929C65.2373 13.9763 64.9367 14.0189 64.6431 14.0568C64.3543 14.09 64.1199 14.1184 63.94 14.142C63.5044 14.1989 63.0972 14.2912 62.7184 14.419C62.3443 14.5421 62.0413 14.7292 61.8093 14.9801C61.582 15.2263 61.4684 15.5625 61.4684 15.9886C61.4684 16.571 61.6838 17.0114 62.1147 17.3097C62.5503 17.6032 63.1019 17.75 63.7695 17.75ZM71.5732 19V8.09091H73.1925V9.73864H73.3061C73.505 9.19886 73.8648 8.76089 74.3857 8.42472C74.9065 8.08854 75.4936 7.92045 76.147 7.92045C76.2701 7.92045 76.424 7.92282 76.6087 7.92756C76.7933 7.93229 76.933 7.93939 77.0277 7.94886V9.65341C76.9709 9.6392 76.8407 9.6179 76.6371 9.58949C76.4382 9.55634 76.2275 9.53977 76.005 9.53977C75.4747 9.53977 75.0012 9.65104 74.5845 9.87358C74.1726 10.0914 73.8459 10.3944 73.6044 10.7827C73.3677 11.1662 73.2493 11.6042 73.2493 12.0966V19H71.5732ZM86.7418 10.5341L85.2362 10.9602C85.1415 10.7093 85.0018 10.4654 84.8171 10.2287C84.6372 9.98722 84.391 9.78835 84.0785 9.6321C83.766 9.47585 83.3659 9.39773 82.8782 9.39773C82.2106 9.39773 81.6542 9.55161 81.2092 9.85938C80.7688 10.1624 80.5487 10.5483 80.5487 11.017C80.5487 11.4337 80.7002 11.7628 81.0032 12.0043C81.3062 12.2457 81.7797 12.447 82.4237 12.608L84.043 13.0057C85.0183 13.2424 85.7451 13.6046 86.2234 14.0923C86.7016 14.5753 86.9407 15.1979 86.9407 15.9602C86.9407 16.5852 86.7608 17.1439 86.4009 17.6364C86.0458 18.1288 85.5487 18.517 84.9094 18.8011C84.2702 19.0852 83.5269 19.2273 82.6793 19.2273C81.5666 19.2273 80.6457 18.9858 79.9165 18.5028C79.1874 18.0199 78.7257 17.3144 78.5316 16.3864L80.1225 15.9886C80.274 16.5758 80.5605 17.0161 80.9819 17.3097C81.408 17.6032 81.9644 17.75 82.6509 17.75C83.4322 17.75 84.0524 17.5843 84.5117 17.2528C84.9757 16.9167 85.2077 16.5142 85.2077 16.0455C85.2077 15.6667 85.0752 15.3494 84.81 15.0938C84.5449 14.8333 84.1377 14.6392 83.5884 14.5114L81.7702 14.0852C80.7712 13.8485 80.0373 13.4815 79.5685 12.9844C79.1045 12.4825 78.8725 11.8551 78.8725 11.1023C78.8725 10.4867 79.0453 9.94223 79.391 9.46875C79.7414 8.99527 80.2172 8.62358 80.8185 8.35369C81.4246 8.08381 82.1112 7.94886 82.8782 7.94886C83.9577 7.94886 84.8053 8.18561 85.4208 8.65909C86.0411 9.13258 86.4814 9.75758 86.7418 10.5341Z" fill="white"/>
</svg>
