<svg width="32" height="32" viewBox="0 0 32 32" fill="none" xmlns="http://www.w3.org/2000/svg">
<mask id="mask0_3_12" style="mask-type:alpha" maskUnits="userSpaceOnUse" x="0" y="0" width="32" height="32">
<rect width="32" height="32" fill="#D9D9D9"/>
</mask>
<g mask="url(#mask0_3_12)">
<path d="M9.33331 29.3334C8.59998 29.3334 7.9722 29.0722 7.44998 28.55C6.92776 28.0278 6.66665 27.4 6.66665 26.6667C6.66665 25.9334 6.92776 25.3056 7.44998 24.7834C7.9722 24.2611 8.59998 24 9.33331 24C10.0666 24 10.6944 24.2611 11.2166 24.7834C11.7389 25.3056 12 25.9334 12 26.6667C12 27.4 11.7389 28.0278 11.2166 28.55C10.6944 29.0722 10.0666 29.3334 9.33331 29.3334ZM22.6666 29.3334C21.9333 29.3334 21.3055 29.0722 20.7833 28.55C20.2611 28.0278 20 27.4 20 26.6667C20 25.9334 20.2611 25.3056 20.7833 24.7834C21.3055 24.2611 21.9333 24 22.6666 24C23.4 24 24.0278 24.2611 24.55 24.7834C25.0722 25.3056 25.3333 25.9334 25.3333 26.6667C25.3333 27.4 25.0722 28.0278 24.55 28.55C24.0278 29.0722 23.4 29.3334 22.6666 29.3334ZM8.19998 8.00002L11.4 14.6667H20.7333L24.4 8.00002H8.19998ZM6.93331 5.33335H26.6C27.1111 5.33335 27.5 5.56113 27.7666 6.01669C28.0333 6.47224 28.0444 6.93335 27.8 7.40002L23.0666 15.9334C22.8222 16.3778 22.4944 16.7222 22.0833 16.9667C21.6722 17.2111 21.2222 17.3334 20.7333 17.3334H10.8L9.33331 20H25.3333V22.6667H9.33331C8.33331 22.6667 7.57776 22.2278 7.06665 21.35C6.55554 20.4722 6.53331 19.6 6.99998 18.7334L8.79998 15.4667L3.99998 5.33335H1.33331V2.66669H5.66665L6.93331 5.33335Z" fill="#F7F6F6"/>
</g>
</svg>
